<?xml version="1.0" standalone="no"?>
<svg version="1.0" xmlns="http://www.w3.org/2000/svg"
 width="1707.000000pt" height="1707.000000pt" viewBox="0 0 1707.000000 1707.000000"
 preserveAspectRatio="xMidYMid meet">
<g transform="translate(0.000000,1707.000000) scale(0.100000,-0.100000)"
fill="#000000" stroke="none">
<path d="M13995 14841 c-94 -43 -140 -153 -101 -244 15 -37 94 -113 351 -337
96 -84 472 -467 579 -590 626 -716 1087 -1477 1404 -2315 134 -356 247 -745
316 -1090 9 -44 18 -91 21 -105 13 -64 45 -249 49 -282 3 -21 7 -53 10 -70 8
-50 14 -96 21 -173 3 -38 8 -83 10 -100 27 -210 27 -1222 1 -1361 -2 -10 -7
-53 -10 -95 -4 -42 -9 -87 -11 -100 -5 -33 -13 -85 -21 -144 -3 -27 -8 -59
-10 -70 -3 -11 -7 -36 -10 -55 -2 -19 -7 -46 -10 -60 -2 -14 -7 -38 -10 -55
-10 -58 -56 -281 -69 -335 -8 -30 -16 -66 -19 -80 -24 -134 -181 -634 -275
-878 -157 -406 -417 -929 -619 -1242 -85 -133 -229 -348 -271 -404 -146 -197
-200 -268 -250 -331 -31 -38 -58 -72 -61 -75 -3 -3 -28 -32 -55 -65 -431 -517
-1005 -1037 -1575 -1427 -276 -188 -329 -234 -340 -295 -20 -120 63 -223 180
-223 47 0 65 7 154 60 141 85 593 406 682 485 7 5 20 17 30 25 66 53 256 211
289 241 291 262 539 507 725 720 36 41 77 87 92 104 291 327 670 870 920 1320
105 189 318 618 318 641 0 2 12 29 26 61 44 97 50 113 107 258 50 129 175 489
182 525 2 8 14 54 28 100 25 81 103 382 111 425 2 11 15 74 29 140 22 104 47
237 63 340 2 17 6 41 9 55 3 14 7 45 10 70 5 43 21 173 30 235 2 17 7 66 10
110 4 44 8 94 10 110 25 217 25 937 1 1180 -2 17 -6 62 -10 100 -30 312 -77
606 -151 950 -85 391 -295 1024 -452 1365 -14 30 -50 109 -80 175 -134 295
-348 675 -560 997 -227 344 -465 649 -771 988 -88 98 -406 417 -503 505 -292
266 -388 336 -456 334 -16 0 -46 -9 -68 -18z"/>
<path d="M2946 14835 c-36 -13 -49 -21 -96 -62 -14 -12 -59 -50 -100 -85 -41
-35 -82 -70 -91 -78 -9 -8 -63 -58 -119 -110 -233 -213 -461 -450 -697 -724
-439 -507 -893 -1225 -1178 -1861 -149 -331 -314 -786 -386 -1065 -5 -19 -11
-42 -14 -50 -9 -32 -65 -253 -70 -274 -44 -205 -76 -368 -81 -409 -4 -29 -8
-55 -10 -59 -3 -4 -7 -26 -10 -50 -3 -24 -9 -65 -14 -93 -5 -27 -11 -75 -15
-105 -3 -30 -8 -68 -10 -85 -5 -38 -12 -111 -20 -195 -3 -36 -8 -78 -10 -95
-26 -198 -26 -907 0 -1185 1 -19 6 -69 10 -110 10 -113 15 -162 20 -195 3 -16
7 -52 10 -80 3 -27 8 -57 10 -65 2 -8 7 -39 10 -69 4 -30 9 -63 11 -75 2 -12
7 -37 10 -56 2 -19 7 -46 10 -60 2 -14 7 -38 10 -55 11 -61 65 -313 85 -391
11 -45 22 -88 23 -95 9 -49 104 -372 147 -501 166 -502 408 -1036 669 -1478
122 -207 414 -649 449 -680 3 -3 46 -58 95 -123 48 -65 93 -123 100 -130 6 -7
29 -35 51 -62 169 -214 548 -617 771 -822 17 -15 56 -50 86 -78 193 -177 380
-332 598 -493 85 -64 171 -127 190 -142 87 -66 360 -238 401 -254 113 -41 225
33 242 160 10 69 -22 117 -133 202 -52 40 -101 75 -109 79 -66 31 -655 478
-787 598 -6 5 -40 35 -75 65 -117 101 -183 164 -359 340 -239 239 -340 350
-514 565 -31 39 -62 77 -69 85 -55 67 -191 250 -272 365 -94 133 -265 391
-265 400 0 2 -22 39 -48 82 -27 43 -65 109 -86 146 -20 37 -46 84 -58 105
-167 294 -366 750 -500 1142 -67 197 -171 563 -192 672 -2 13 -11 52 -19 88
-8 36 -18 81 -21 100 -6 36 -7 42 -24 120 -6 25 -13 67 -17 94 -3 27 -8 52 -9
55 -4 6 -12 62 -22 141 -2 19 -6 51 -9 70 -17 111 -30 244 -42 425 -16 245 -7
1149 12 1207 2 7 6 40 9 73 4 33 8 69 10 80 2 11 7 47 11 80 3 32 8 62 10 65
1 3 6 32 10 65 13 115 126 672 141 697 2 3 18 59 34 123 140 538 416 1185 748
1755 126 215 417 652 475 712 7 7 24 29 37 48 13 19 27 37 30 40 3 3 41 50 85
105 245 306 549 624 910 951 270 244 266 238 259 332 -4 64 -24 103 -66 135
-55 42 -113 52 -172 32z"/>
<path d="M12575 13995 c-28 -14 -63 -37 -77 -52 -51 -55 -70 -192 -35 -259 21
-40 78 -92 252 -229 83 -66 155 -124 161 -129 6 -6 39 -36 74 -66 193 -167
445 -419 620 -621 136 -155 151 -173 264 -324 512 -679 859 -1422 1047 -2235
34 -151 34 -147 44 -210 4 -25 9 -54 11 -65 10 -51 27 -153 29 -180 2 -16 8
-63 14 -102 6 -40 13 -101 16 -135 3 -35 7 -88 10 -118 13 -156 16 -254 16
-450 0 -281 -11 -441 -47 -735 -7 -56 -10 -75 -33 -210 -28 -163 -31 -177 -37
-197 -3 -10 -8 -30 -10 -45 -19 -103 -101 -413 -142 -533 -3 -8 -6 -19 -8 -25
-9 -37 -86 -244 -136 -370 -73 -181 -229 -506 -323 -670 -38 -66 -73 -129 -80
-140 -99 -178 -395 -594 -551 -775 -137 -159 -208 -235 -388 -415 -424 -424
-825 -733 -1335 -1031 -141 -83 -189 -144 -193 -246 -5 -152 132 -265 274
-228 84 23 233 108 513 294 127 84 337 232 378 266 7 6 53 42 102 81 266 209
573 492 795 734 126 137 147 162 271 315 272 337 496 674 689 1035 29 55 57
107 61 115 17 30 122 255 161 344 179 410 346 961 413 1357 3 19 10 59 15 89
14 81 40 267 45 330 3 30 7 69 9 85 5 31 16 186 22 285 9 159 3 605 -10 739
-3 31 -8 85 -11 121 -6 65 -10 100 -20 195 -15 131 -80 496 -107 600 -5 22
-12 51 -15 65 -2 14 -11 48 -19 76 -8 28 -17 62 -19 74 -26 137 -214 686 -285
831 -11 24 -20 46 -20 50 0 25 -206 437 -308 614 -170 297 -435 687 -588 865
-12 14 -50 59 -84 100 -225 273 -593 640 -830 830 -24 19 -48 40 -54 45 -6 6
-54 44 -106 86 -248 198 -324 228 -435 174z"/>
<path d="M4350 14000 c-46 -8 -70 -21 -160 -88 -295 -219 -714 -607 -1011
-938 -32 -36 -233 -276 -263 -314 -501 -645 -869 -1363 -1091 -2125 -29 -99
-80 -296 -90 -350 -5 -22 -10 -44 -11 -50 -2 -5 -6 -23 -9 -40 -3 -16 -12 -59
-20 -95 -8 -36 -17 -81 -20 -100 -3 -19 -7 -46 -10 -60 -12 -63 -33 -207 -40
-270 -3 -30 -8 -66 -10 -80 -2 -14 -7 -61 -10 -105 -3 -44 -8 -91 -10 -105
-20 -128 -20 -682 0 -915 2 -22 6 -76 10 -120 3 -44 8 -91 11 -105 2 -14 6
-50 9 -80 3 -30 8 -66 10 -80 3 -14 7 -43 11 -65 11 -77 21 -137 51 -285 166
-838 505 -1633 1007 -2360 75 -109 283 -389 297 -400 3 -3 30 -34 59 -70 120
-147 467 -501 716 -730 227 -210 711 -567 982 -725 9 -6 55 -33 102 -61 130
-77 178 -97 236 -100 141 -6 237 85 237 226 0 100 -32 147 -157 229 -82 53
-105 67 -126 77 -40 20 -310 196 -426 280 -183 130 -408 307 -520 409 -324
293 -527 507 -792 830 -9 11 -62 83 -119 160 -57 77 -106 145 -111 150 -23 30
-149 227 -214 335 -99 164 -242 440 -318 615 -33 77 -65 149 -70 160 -10 20
-36 89 -92 240 -100 272 -229 754 -263 989 -48 327 -55 386 -71 626 -6 100 -6
490 0 575 2 28 7 102 11 165 4 63 9 117 10 120 2 3 6 39 10 80 3 41 8 82 10
90 2 8 7 40 10 70 4 30 13 93 21 140 8 47 17 101 20 120 3 19 7 43 10 52 3 9
7 27 9 40 3 13 7 34 10 48 3 14 7 34 9 45 2 11 9 40 16 65 7 25 14 55 16 68 7
36 49 189 87 312 126 411 338 877 585 1290 122 204 395 589 514 725 14 17 59
68 98 115 226 264 500 525 870 827 102 83 195 161 207 174 70 76 63 224 -14
311 -36 40 -144 70 -213 58z"/>
<path d="M11708 12890 c-43 -23 -72 -61 -84 -110 -26 -103 18 -178 171 -290
112 -83 330 -277 477 -426 384 -390 636 -735 868 -1189 47 -93 99 -199 115
-235 15 -36 36 -83 45 -105 48 -106 154 -424 196 -583 36 -136 39 -150 50
-212 3 -19 10 -48 14 -65 5 -16 12 -50 15 -75 3 -25 8 -52 10 -60 2 -8 6 -37
10 -65 3 -27 8 -63 10 -80 3 -16 7 -52 10 -80 2 -27 8 -81 12 -120 16 -147 8
-718 -12 -839 -2 -12 -6 -46 -10 -76 -48 -460 -205 -976 -441 -1450 -232 -465
-516 -854 -908 -1246 -315 -314 -562 -506 -993 -773 -163 -100 -199 -142 -208
-236 -2 -25 19 -83 41 -112 45 -60 116 -80 199 -56 160 47 666 393 997 684 78
67 376 364 443 439 156 175 326 394 441 570 38 58 71 107 74 110 3 3 42 66 85
140 130 222 278 525 357 735 75 196 159 464 194 618 2 9 6 25 8 35 21 79 56
260 71 367 4 22 8 50 10 63 2 13 7 56 10 95 4 40 9 88 11 107 13 116 18 256
18 490 1 232 -8 462 -18 479 -2 3 -7 40 -10 80 -4 41 -9 77 -10 80 -2 4 -6 29
-10 56 -7 56 -12 87 -27 161 -5 28 -12 61 -14 75 -46 240 -161 615 -271 884
-68 164 -229 490 -310 625 -207 348 -458 679 -729 960 -237 246 -615 571 -734
632 -46 24 -126 23 -173 -2z"/>
<path d="M5208 12891 c-22 -8 -200 -133 -234 -165 -6 -6 -22 -20 -36 -31 -149
-123 -194 -163 -306 -270 -72 -69 -115 -112 -247 -249 -12 -11 -63 -70 -116
-131 -531 -617 -914 -1363 -1094 -2135 -34 -142 -79 -391 -91 -500 -3 -30 -7
-66 -10 -80 -24 -148 -24 -899 0 -1026 2 -11 7 -47 10 -80 4 -32 11 -86 17
-119 6 -33 12 -71 14 -85 3 -22 40 -211 49 -250 51 -220 146 -528 217 -702
171 -422 357 -767 593 -1103 31 -44 190 -249 223 -286 234 -271 506 -540 743
-736 241 -198 640 -465 803 -538 135 -59 273 26 270 167 -3 84 -39 122 -228
240 -270 168 -461 305 -657 469 -129 109 -122 102 -274 251 -148 144 -200 200
-317 336 -326 383 -609 847 -776 1273 -29 74 -57 143 -62 154 -13 30 -66 196
-99 310 -45 156 -67 249 -94 395 -29 159 -31 173 -51 344 -25 211 -25 774 0
966 14 109 38 264 51 322 7 37 16 82 19 100 9 50 42 182 70 283 14 50 28 97
30 105 12 51 100 295 146 405 63 155 208 446 280 565 28 47 57 95 63 107 6 13
14 23 19 23 4 0 7 5 7 10 0 23 256 380 355 495 258 301 450 488 775 750 145
117 169 143 181 194 26 118 -45 217 -162 226 -30 3 -66 1 -81 -4z"/>
<path d="M10908 11839 c-56 -15 -97 -49 -121 -101 -28 -58 -27 -90 5 -156 18
-39 40 -61 163 -161 99 -80 170 -145 291 -266 120 -120 175 -180 272 -300 164
-202 334 -488 453 -758 36 -82 135 -359 143 -404 2 -10 11 -45 19 -78 9 -33
18 -71 21 -85 2 -14 9 -48 15 -77 6 -29 13 -74 17 -100 3 -26 9 -66 14 -88 4
-22 8 -47 8 -55 0 -8 4 -53 8 -100 19 -223 6 -524 -32 -750 -21 -121 -18 -110
-44 -215 -12 -49 -23 -99 -26 -110 -9 -49 -100 -308 -141 -404 -56 -131 -135
-290 -179 -359 -19 -29 -34 -55 -34 -58 0 -5 -157 -239 -179 -266 -214 -268
-444 -503 -626 -641 -5 -4 -23 -19 -40 -32 -47 -39 -231 -167 -325 -227 -181
-113 -204 -137 -215 -221 -14 -102 74 -207 174 -207 70 0 244 94 457 248 535
385 951 863 1213 1392 35 69 67 133 73 144 39 73 166 436 198 566 21 85 50
215 55 240 46 259 50 307 50 605 0 395 -12 542 -65 770 -7 28 -14 59 -16 71
-2 11 -21 83 -43 160 -151 533 -418 1021 -781 1429 -191 214 -571 553 -658
586 -34 13 -93 17 -124 8z"/>
<path d="M6095 11773 c-20 -5 -115 -67 -158 -102 -378 -318 -634 -595 -841
-909 -115 -175 -212 -354 -309 -572 -56 -125 -158 -415 -171 -484 -2 -11 -13
-57 -24 -101 -23 -90 -25 -96 -51 -255 -32 -190 -44 -332 -45 -545 0 -118 9
-314 18 -390 14 -109 20 -149 30 -205 3 -14 8 -41 10 -60 9 -56 16 -92 28
-135 5 -22 11 -47 13 -55 22 -113 105 -364 172 -525 126 -298 284 -570 486
-835 45 -58 83 -107 86 -110 4 -3 33 -36 66 -75 65 -76 246 -260 337 -342 211
-191 600 -458 744 -512 69 -26 129 -10 190 50 78 77 77 179 -4 254 -15 14 -84
61 -154 105 -110 70 -354 241 -368 259 -3 3 -43 38 -90 77 -143 119 -335 316
-458 468 -239 296 -419 613 -542 956 -35 97 -85 261 -94 306 -3 10 -11 51 -19
89 -9 39 -19 88 -22 110 -4 22 -9 49 -10 60 -41 238 -50 602 -20 835 1 14 6
50 10 80 20 167 109 534 155 638 11 25 20 50 20 56 1 6 9 29 20 51 11 22 19
44 20 49 1 21 139 293 206 406 146 244 290 431 471 615 166 167 208 206 413
377 112 94 146 178 106 263 -37 76 -140 127 -221 108z"/>
<path d="M10089 10970 c-88 -26 -142 -130 -122 -234 7 -33 57 -88 163 -177
388 -326 633 -696 765 -1153 14 -49 28 -103 31 -120 3 -17 9 -49 14 -71 5 -22
11 -64 15 -94 4 -30 9 -63 11 -75 5 -25 5 -346 0 -396 -2 -19 -7 -64 -10 -100
-40 -375 -245 -828 -519 -1144 -153 -178 -326 -328 -540 -470 -200 -133 -226
-165 -214 -268 8 -64 45 -114 105 -140 93 -41 172 -13 392 141 122 85 142 101
254 196 251 212 484 507 635 805 109 214 214 509 237 668 3 20 7 43 10 50 2 8
7 37 10 65 3 29 7 57 9 64 22 70 22 521 0 627 -2 12 -6 39 -9 61 -12 100 -60
300 -100 419 -155 460 -397 820 -786 1168 -187 167 -262 205 -351 178z"/>
<path d="M6854 10950 c-72 -31 -239 -174 -419 -360 -92 -95 -118 -125 -199
-230 -240 -316 -417 -720 -481 -1100 -9 -52 -18 -106 -20 -119 -9 -51 -18
-201 -18 -306 -3 -550 174 -1088 505 -1537 192 -261 510 -553 777 -713 185
-111 265 -116 349 -21 34 39 46 84 39 145 -7 60 -26 82 -139 162 -177 125
-301 216 -343 250 -46 39 -227 219 -265 264 -311 367 -503 818 -537 1260 -11
146 -4 439 12 465 1 3 6 28 9 55 4 28 12 70 17 95 6 25 13 56 15 70 3 14 25
86 50 160 135 407 386 767 743 1066 52 44 108 96 125 117 28 35 31 46 31 107
0 78 -15 106 -81 152 -49 35 -114 41 -170 18z"/>
<path d="M8260 10013 c-350 -45 -690 -238 -894 -510 -167 -223 -248 -469 -241
-737 13 -500 372 -953 885 -1115 174 -54 260 -66 465 -65 218 1 407 46 610
144 153 74 217 121 365 270 131 131 217 272 282 463 l32 92 0 220 c1 204 -1
226 -23 300 -90 301 -323 593 -603 758 -126 74 -313 145 -423 161 -117 17
-384 27 -455 19z m405 -197 c293 -63 471 -154 659 -335 129 -125 200 -239 257
-413 52 -160 59 -354 19 -511 -62 -236 -235 -471 -460 -621 -128 -86 -339
-167 -473 -181 -67 -7 -392 -8 -423 -1 -12 2 -37 7 -57 10 -52 8 -180 53 -265
92 -117 54 -238 138 -327 227 -197 196 -292 406 -300 662 -7 217 44 401 158
570 49 72 211 238 287 293 141 102 348 185 523 208 23 4 44 8 46 10 6 5 324
-3 356 -10z"/>
</g>
</svg>
